<svg xmlns="http://www.w3.org/2000/svg" viewBox="0 0 400 400"><g transform="matrix(6.25,0,0,6.25,0,0)"><defs/><g id="Storefront"><rect x="-2" y="4" width="62" height="56" rx="4" transform="translate(-3 61) rotate(-90)" stroke-linecap="round" stroke-linejoin="round" stroke="#231f20" fill="#3380ff"/><rect x="1" y="9" width="56" height="14" fill="#b1b1b1" stroke-linecap="round" stroke-linejoin="round" stroke="#231f20"/><path d="M1,59H57a0,0,0,0,1,0,0v0a4,4,0,0,1-4,4H5a4,4,0,0,1-4-4v0a0,0,0,0,1,0,0Z" fill="#333333" stroke-linecap="round" stroke-linejoin="round" stroke="#231f20"/><path d="M5,1H53a4,4,0,0,1,4,4V9a0,0,0,0,1,0,0H1A0,0,0,0,1,1,9V5A4,4,0,0,1,5,1Z" fill="#d6dcdc" stroke-linecap="round" stroke-linejoin="round" stroke="#231f20"/><rect x="1.00001" y="7.00001" width="62" height="49.99999" rx="4" transform="translate(0.00001 64.00001) rotate(-90)" fill="#ffffff" stroke-linecap="round" stroke-linejoin="round" stroke="#231f20"/><rect x="7" y="23" width="21" height="36" fill="#33ddff" stroke-linecap="round" stroke-linejoin="round" stroke="#231f20"/><rect x="28" y="23" width="29" height="24" transform="translate(85 70) rotate(180)" fill="#33ddff" stroke-linecap="round" stroke-linejoin="round" stroke="#231f20"/><rect x="13" y="33.66667" width="9" height="4" rx="1" fill="#ff8b00" stroke-linecap="round" stroke-linejoin="round" stroke="#231f20"/><line x1="15.5" y1="35.66667" x2="19.5" y2="35.66667" stroke="#ffe8cc" fill="none" stroke-linecap="round" stroke-linejoin="round"/><polyline points="15 33.667 17.5 29.667 20 33.667" fill="none" stroke-linecap="round" stroke-linejoin="round" stroke="#231f20"/><circle cx="46.5629" cy="43.45614" r="1.72921" stroke="#c8d4fa" fill="#ffffff" stroke-linecap="round" stroke-linejoin="round"/><circle cx="32.72921" cy="43.93746" r="1.72921" stroke="#3380ff" fill="#33ddff" stroke-linecap="round" stroke-linejoin="round"/><circle cx="36.18763" cy="43.93746" r="1.72921" stroke="#3380ff" fill="#33ddff" stroke-linecap="round" stroke-linejoin="round"/><circle cx="34.45842" cy="40.47903" r="1.72921" stroke="#3380ff" fill="#33ddff" stroke-linecap="round" stroke-linejoin="round"/><circle cx="37.91685" cy="40.47903" r="1.72921" stroke="#3380ff" fill="#33ddff" stroke-linecap="round" stroke-linejoin="round"/><circle cx="39.64606" cy="43.93746" r="1.72921" stroke="#3380ff" fill="#33ddff" stroke-linecap="round" stroke-linejoin="round"/><circle cx="41.37527" cy="40.47903" r="1.72921" stroke="#3380ff" fill="#33ddff" stroke-linecap="round" stroke-linejoin="round"/><circle cx="43.10448" cy="43.93746" r="1.72921" stroke="#3380ff" fill="#33ddff" stroke-linecap="round" stroke-linejoin="round"/><line x1="39" y1="39.14798" x2="39" y2="35.14798" stroke="#1e9cdd" fill="none" stroke-linecap="round" stroke-linejoin="round"/><rect x="36" y="31.14798" width="6" height="4" rx="1" stroke="#1e9cdd" fill="#33ddff" stroke-linecap="round" stroke-linejoin="round"/><rect x="28" y="45.66667" width="29" height="13.33333" fill="#ffc700" stroke-linecap="round" stroke-linejoin="round" stroke="#231f20"/><rect x="7" y="9" width="50" height="14" fill="#d6dcdc" stroke-linecap="round" stroke-linejoin="round" stroke="#231f20"/><path d="M53,19H63a0,0,0,0,1,0,0v3a5,5,0,0,1-5,5h0a5,5,0,0,1-5-5V19a0,0,0,0,1,0,0Z" fill="#e62234" stroke-linecap="round" stroke-linejoin="round" stroke="#231f20"/><path d="M43,19H53a0,0,0,0,1,0,0v3a5,5,0,0,1-5,5h0a5,5,0,0,1-5-5V19a0,0,0,0,1,0,0Z" fill="#e4e4e4" stroke-linecap="round" stroke-linejoin="round" stroke="#231f20"/><path d="M33,19H43a0,0,0,0,1,0,0v3a5,5,0,0,1-5,5h0a5,5,0,0,1-5-5V19A0,0,0,0,1,33,19Z" fill="#e62234" stroke-linecap="round" stroke-linejoin="round" stroke="#231f20"/><path d="M23,19H33a0,0,0,0,1,0,0v3a5,5,0,0,1-5,5h0a5,5,0,0,1-5-5V19A0,0,0,0,1,23,19Z" fill="#e4e4e4" stroke-linecap="round" stroke-linejoin="round" stroke="#231f20"/><path d="M13,19H23a0,0,0,0,1,0,0v3a5,5,0,0,1-5,5h0a5,5,0,0,1-5-5V19a0,0,0,0,1,0,0Z" fill="#e62234" stroke-linecap="round" stroke-linejoin="round" stroke="#231f20"/><path d="M11,1H53a4,4,0,0,1,4,4V9a0,0,0,0,1,0,0H7A0,0,0,0,1,7,9V5A4,4,0,0,1,11,1Z" fill="#ffffff" stroke-linecap="round" stroke-linejoin="round" stroke="#231f20"/><polygon points="63 19 13 19 7 9 57 9 63 19" fill="#ffffff" stroke-linecap="round" stroke-linejoin="round" stroke="#231f20"/><polygon points="17 9 7 9 13 19 23 19 17 9" fill="#ff3446" stroke-linecap="round" stroke-linejoin="round" stroke="#231f20"/><polygon points="27 9 17 9 23 19 33 19 27 9" fill="#ffffff" stroke-linecap="round" stroke-linejoin="round" stroke="#231f20"/><polygon points="37 9 27 9 33 19 43 19 37 9" fill="#ff3446" stroke-linecap="round" stroke-linejoin="round" stroke="#231f20"/><polygon points="47 9 37 9 43 19 53 19 47 9" fill="#ffffff" stroke-linecap="round" stroke-linejoin="round" stroke="#231f20"/><polygon points="57 9 47 9 53 19 63 19 57 9" fill="#ff3446" stroke-linecap="round" stroke-linejoin="round" stroke="#231f20"/><path d="M7,59H63a0,0,0,0,1,0,0v0a4,4,0,0,1-4,4H11a4,4,0,0,1-4-4v0A0,0,0,0,1,7,59Z" fill="#666666" stroke-linecap="round" stroke-linejoin="round" stroke="#231f20"/><path d="M12,4H52a1,1,0,0,1,1,1V6a0,0,0,0,1,0,0H11a0,0,0,0,1,0,0V5A1,1,0,0,1,12,4Z" stroke="#e4e4e4" fill="#e4e4e4" stroke-linecap="round" stroke-linejoin="round"/><path d="M43,59H56.33333l2.47933-19.83462a1.33333,1.33333,0,0,0-1.323-1.49871H46.84371a1.33334,1.33334,0,0,0-1.323,1.16795Z" fill="none" stroke-linecap="round" stroke-linejoin="round" stroke="#231f20"/><path d="M43.41667,55.66667l2.104-16.83205a1.33334,1.33334,0,0,1,1.323-1.16795H57.48962a1.33333,1.33333,0,0,1,1.323,1.49871L56.75,55.66667Z" fill="#054828" stroke-linecap="round" stroke-linejoin="round" stroke="#231f20"/><path d="M61.66667,59H48.33333L45.854,39.16538a1.33333,1.33333,0,0,1,1.323-1.49871H57.823a1.33332,1.33332,0,0,1,1.323,1.16795Z" fill="none" stroke-linecap="round" stroke-linejoin="round" stroke="#231f20"/><path d="M61.66667,59H48.33333L45.854,39.16538a1.33333,1.33333,0,0,1,1.323-1.49871H57.823a1.33332,1.33332,0,0,1,1.323,1.16795Z" fill="none" stroke-linecap="round" stroke-linejoin="round" stroke="#231f20"/><path d="M61.25,55.66667,59.146,38.83462a1.33332,1.33332,0,0,0-1.323-1.16795H47.177a1.33333,1.33333,0,0,0-1.323,1.49871l2.06265,16.50129Z" fill="#21cd62" stroke-linecap="round" stroke-linejoin="round" stroke="#231f20"/><line x1="57.33333" y1="49.66667" x2="50.74998" y2="49.66667" stroke="#ffffff" fill="none" stroke-linecap="round" stroke-linejoin="round"/><line x1="54.625" y1="41" x2="51.29167" y2="41" stroke="#ffffff" fill="none" stroke-linecap="round" stroke-linejoin="round"/><line x1="56.66667" y1="44.33333" x2="50.08331" y2="44.33333" stroke="#ffffff" fill="none" stroke-linecap="round" stroke-linejoin="round"/><line x1="57" y1="47" x2="50.41665" y2="47" stroke="#ffffff" fill="none" stroke-linecap="round" stroke-linejoin="round"/><line x1="51.08331" y1="52.33333" x2="57.66667" y2="52.33333" stroke="#ffffff" fill="none" stroke-linecap="round" stroke-linejoin="round"/><path d="M24,38.70563a1.59375,1.59375,0,0,1,1.59375,1.59375v2.77354A1.59375,1.59375,0,0,1,24,44.66667" fill="none" stroke-linecap="round" stroke-linejoin="round" stroke="#231f20"/><line x1="17.70732" y1="42.30081" x2="14.90244" y2="44.54472" stroke="#ffffff" fill="none" stroke-linecap="round" stroke-linejoin="round"/><line x1="15.25" y1="47.66667" x2="14.25406" y2="48.46341" stroke="#ffffff" fill="none" stroke-linecap="round" stroke-linejoin="round"/><line x1="20.59541" y1="43.39034" x2="17.00287" y2="46.26437" stroke="#ffffff" fill="none" stroke-linecap="round" stroke-linejoin="round"/><line x1="47.09352" y1="33.94299" x2="46.18892" y2="34.66667" stroke="#ffffff" fill="none" stroke-linecap="round" stroke-linejoin="round"/><line x1="51.8156" y1="30.16533" x2="48.84638" y2="32.5407" stroke="#ffffff" fill="none" stroke-linecap="round" stroke-linejoin="round"/></g></g></svg>