<svg xmlns="http://www.w3.org/2000/svg" viewBox="0 0 400 400"><g transform="matrix(6.25,0,0,6.25,0,0)"><defs/><g id="Takeout_food" data-name="Takeout food"><path d="M54.79474,10.2757,54,10H44l-.79474.2757A12.458,12.458,0,0,0,35,22.12457V60a3,3,0,0,0,3,3h2.76393a2,2,0,0,0,1.78886-1.10557l.2236-.44722a.809.809,0,0,1,1.44722,0l.2236.44722A2,2,0,0,0,46.23607,63h5.52786a2,2,0,0,0,1.78886-1.10557l.2236-.44722a.809.809,0,0,1,1.44722,0l.2236.44722A2,2,0,0,0,57.23607,63H60a3,3,0,0,0,3-3V22.12457A12.458,12.458,0,0,0,54.79474,10.2757Z" stroke-linecap="round" stroke-linejoin="round" stroke="#231f20" fill="#33ddff"/><path d="M40,61V22.12457c0-5.376.30518-10.1488,5.20526-11.84887L46,10H44l-.79474.2757A12.458,12.458,0,0,0,35,22.12457V60a3,3,0,0,0,3,3h2.76392a1.98207,1.98207,0,0,0,.61865-.10718A1.99337,1.99337,0,0,1,40,61Z" stroke="#3380ff" fill="#3380ff" stroke-linecap="round" stroke-linejoin="round"/><rect x="35" y="25" width="28" height="24" fill="#3380ff" stroke-linecap="round" stroke-linejoin="round" stroke="#231f20"/><path d="M35,40.5a17.08333,17.08333,0,0,1,14,0,17.08333,17.08333,0,0,0,14,0v-7a17.08333,17.08333,0,0,1-14,0,17.08333,17.08333,0,0,0-14,0Z" fill="#ffffff" stroke-linecap="round" stroke-linejoin="round" stroke="#231f20"/><rect x="42" y="1" width="14" height="6" rx="1" transform="translate(98 8) rotate(-180)" fill="#ffffff" stroke-linecap="round" stroke-linejoin="round" stroke="#231f20"/><rect x="44" y="7" width="10" height="3" stroke-linecap="round" stroke-linejoin="round" stroke="#231f20" fill="#33ddff"/><rect x="35" y="25" width="5" height="24" fill="#1e4bdd" stroke="#1e4bdd" stroke-linecap="round" stroke-linejoin="round"/><path d="M35,40.5a14.336,14.336,0,0,1,5-1.38953V32.12689A14.2027,14.2027,0,0,0,35,33.5Z" fill="#c8d4fa" stroke="#c8d4fa" stroke-linecap="round" stroke-linejoin="round"/><rect x="44" y="7" width="2" height="3" stroke="#3380ff" fill="#3380ff" stroke-linecap="round" stroke-linejoin="round"/><path d="M54.79474,10.2757,54,10H44l-.79474.2757A12.458,12.458,0,0,0,35,22.12457V60a3,3,0,0,0,3,3h2.76393a2,2,0,0,0,1.78886-1.10557l.2236-.44722a.809.809,0,0,1,1.44722,0l.2236.44722A2,2,0,0,0,46.23607,63h5.52786a2,2,0,0,0,1.78886-1.10557l.2236-.44722a.809.809,0,0,1,1.44722,0l.2236.44722A2,2,0,0,0,57.23607,63H60a3,3,0,0,0,3-3V22.12457A12.458,12.458,0,0,0,54.79474,10.2757Z" fill="none" stroke-linecap="round" stroke-linejoin="round" stroke="#231f20"/><rect x="35" y="25" width="28" height="24" fill="none" stroke-linecap="round" stroke-linejoin="round" stroke="#231f20"/><path d="M35,40.5a17.08333,17.08333,0,0,1,14,0,17.08333,17.08333,0,0,0,14,0v-7a17.08333,17.08333,0,0,1-14,0,17.08333,17.08333,0,0,0-14,0Z" fill="none" stroke-linecap="round" stroke-linejoin="round" stroke="#231f20"/><rect x="42" y="1" width="14" height="6" rx="1" transform="translate(98 8) rotate(-180)" fill="none" stroke-linecap="round" stroke-linejoin="round" stroke="#231f20"/><rect x="44" y="7" width="10" height="3" fill="none" stroke-linecap="round" stroke-linejoin="round" stroke="#231f20"/><line x1="60" y1="52" x2="38" y2="52" stroke="#ffffff" fill="none" stroke-linecap="round" stroke-linejoin="round"/><line x1="42" y1="5" x2="56" y2="5" fill="none" stroke-linecap="round" stroke-linejoin="round" stroke="#231f20"/><line x1="49" y1="1" x2="49" y2="5" fill="none" stroke-linecap="round" stroke-linejoin="round" stroke="#231f20"/><line x1="52.5" y1="1" x2="52.5" y2="5" fill="none" stroke-linecap="round" stroke-linejoin="round" stroke="#231f20"/><line x1="45.5" y1="1" x2="45.5" y2="5" fill="none" stroke-linecap="round" stroke-linejoin="round" stroke="#231f20"/><line x1="53" y1="28" x2="60" y2="28" stroke="#ffffff" fill="none" stroke-linecap="round" stroke-linejoin="round"/><line x1="55" y1="30" x2="60" y2="30" stroke="#ffffff" fill="none" stroke-linecap="round" stroke-linejoin="round"/><line x1="60" y1="46" x2="52" y2="46" stroke="#ffffff" fill="none" stroke-linecap="round" stroke-linejoin="round"/><line x1="60" y1="22" x2="38" y2="22" stroke="#ffffff" fill="none" stroke-linecap="round" stroke-linejoin="round"/><path d="M30.55825,43.90475l-.04562.01889a1,1,0,0,1-1.29671-.51822L13.79626,8.66155A1,1,0,0,1,14.3276,7.332l1.801-.746a1,1,0,0,1,1.31584.56441l13.66429,35.471A1,1,0,0,1,30.55825,43.90475Z" fill="#fffcdf" stroke-linecap="round" stroke-linejoin="round" stroke="#231f20"/><path d="M14.74348,8.26916a1,1,0,0,1,.53136-1.32951l-.94722.39236a1,1,0,0,0-.53136,1.32951L29.21593,43.40538C29.436,43.90133,14.74348,8.26916,14.74348,8.26916Z" fill="#eab46d" stroke="#eab46d" stroke-linecap="round" stroke-linejoin="round"/><path d="M30.55825,43.90475l-.04562.01889a1,1,0,0,1-1.29671-.51822L13.79626,8.66155A1,1,0,0,1,14.3276,7.332l1.801-.746a1,1,0,0,1,1.31584.56441l13.66429,35.471A1,1,0,0,1,30.55825,43.90475Z" fill="none" stroke-linecap="round" stroke-linejoin="round" stroke="#231f20"/><path d="M33.99384,39.67219l-.03492.03492a1,1,0,0,1-1.39632.01745L5.02079,13.52625a1,1,0,0,1-.01789-1.43166l1.37842-1.37842a1,1,0,0,1,1.43166.01789L34.01129,38.27587A1,1,0,0,1,33.99384,39.67219Z" fill="#fffcdf" stroke-linecap="round" stroke-linejoin="round" stroke="#231f20"/><path d="M5.74576,12.80125a1,1,0,0,1-.01787-1.43165l-.725.725a1,1,0,0,0,.01787,1.43165L32.5626,39.72452C32.95573,40.09849,5.74576,12.80125,5.74576,12.80125Z" fill="#eab46d" stroke="#eab46d" stroke-linecap="round" stroke-linejoin="round"/><path d="M33.99384,39.67219l-.03492.03492a1,1,0,0,1-1.39632.01745L5.02079,13.52625a1,1,0,0,1-.01789-1.43166l1.37842-1.37842a1,1,0,0,1,1.43166.01789L34.01129,38.27587A1,1,0,0,1,33.99384,39.67219Z" fill="none" stroke-linecap="round" stroke-linejoin="round" stroke="#231f20"/><path d="M40.38288,41.54805a.99975.99975,0,0,1-.59805-1.28154,8.00918,8.00918,0,0,1,10.2523-4.7844,1,1,0,0,1-.68349,1.87959A6.00657,6.00657,0,0,0,41.66442,40.95.99973.99973,0,0,1,40.38288,41.54805Z" fill="#ffd540" stroke-linecap="round" stroke-linejoin="round" stroke="#231f20"/><path d="M24.71,39c0-4.41828,4.47715-8,10-8s10,3.58172,10,8Z" fill="#ffd540" stroke-linecap="round" stroke-linejoin="round" stroke="#231f20"/><path d="M27.21,39c0-3.31371,3.35786-6,7.5-6s7.5,2.68629,7.5,6Z" fill="#ffd540" stroke-linecap="round" stroke-linejoin="round" stroke="#231f20"/><circle cx="39.21001" cy="38.5" r="3.5" fill="#f87d30" stroke-linecap="round" stroke-linejoin="round" stroke="#231f20"/><path d="M29.71,39c0-2.20914,2.23857-4,5-4s5,1.79086,5,4Z" fill="#ffd540" stroke-linecap="round" stroke-linejoin="round" stroke="#231f20"/><path d="M32.21,39a2.29231,2.29231,0,0,1,2.5-2,2.29232,2.29232,0,0,1,2.5,2Z" fill="#ffd540" stroke-linecap="round" stroke-linejoin="round" stroke="#231f20"/><path d="M4.71,39c0-5.52285,5.37258-10,12-10s12,4.47715,12,10Z" fill="#ffd540" stroke-linecap="round" stroke-linejoin="round" stroke="#231f20"/><path d="M17.13858,29.01805C16.99513,29.01382,16.85471,29,16.71,29c-6.62743,0-12,4.47715-12,10h.85714C5.56715,33.59773,10.71137,29.20765,17.13858,29.01805Z" fill="#ff991f" stroke="#ff991f" stroke-linecap="round" stroke-linejoin="round"/><path d="M4.71,39c0-5.52285,5.37258-10,12-10s12,4.47715,12,10Z" fill="none" stroke-linecap="round" stroke-linejoin="round" stroke="#231f20"/><path d="M7.11,39c0-4.41828,4.29806-8,9.6-8s9.6,3.58172,9.6,8Z" fill="#ffd540" stroke-linecap="round" stroke-linejoin="round" stroke="#231f20"/><path d="M9.51,39c0-3.31371,3.22355-6,7.2-6s7.2,2.68629,7.2,6Z" fill="#ffd540" stroke-linecap="round" stroke-linejoin="round" stroke="#231f20"/><path d="M11.91,39c0-2.20914,2.149-4,4.8-4s4.8,1.79086,4.8,4Z" fill="#ffd540" stroke-linecap="round" stroke-linejoin="round" stroke="#231f20"/><path d="M40.08373,63H10.27156a2,2,0,0,1-1.94029-1.51493L2.71,39h44L42.04169,61.40791A2,2,0,0,1,40.08373,63Z" fill="#d62030" stroke-linecap="round" stroke-linejoin="round" stroke="#231f20"/><polygon points="43.585 54 44.835 48 4.96 48 6.46 54 43.585 54" fill="#ff8b00" stroke-linecap="round" stroke-linejoin="round" stroke="#231f20"/><path d="M40.08373,63H20.40426a2,2,0,0,1-1.97279-1.6712L14.71,39h32L42.04169,61.40791A2,2,0,0,1,40.08373,63Z" fill="#ff3446" stroke-linecap="round" stroke-linejoin="round" stroke="#231f20"/><polygon points="43.585 54 44.835 48 16.21 48 17.21 54 43.585 54" fill="#ffc800" stroke-linecap="round" stroke-linejoin="round" stroke="#231f20"/><circle cx="31.21001" cy="51" r="7" fill="#ffffff" stroke-linecap="round" stroke-linejoin="round" stroke="#231f20"/><circle cx="31.21001" cy="51" r="5" stroke="#ffc800" fill="#ffc800" stroke-linecap="round" stroke-linejoin="round"/><line x1="28.21001" y1="51" x2="34.21001" y2="51" stroke="#ffffff" fill="none" stroke-linecap="round" stroke-linejoin="round"/><line x1="29.21001" y1="53.5" x2="33.21001" y2="53.5" stroke="#ffffff" fill="none" stroke-linecap="round" stroke-linejoin="round"/><line x1="29.21001" y1="48.5" x2="33.21001" y2="48.5" stroke="#ffffff" fill="none" stroke-linecap="round" stroke-linejoin="round"/><circle cx="25.21001" cy="39.5" r="3.5" fill="#f87d30" stroke-linecap="round" stroke-linejoin="round" stroke="#231f20"/><path d="M49.30862,45H19.51278a1.5,1.5,0,0,1-1.24807-.66795L14.71,39h32l3.22265,4.834A.75.75,0,0,1,49.30862,45Z" fill="#ffffff" stroke-linecap="round" stroke-linejoin="round" stroke="#231f20"/><path d="M11.62887,45H1.75057a.75.75,0,0,1-.71151-.98717L2.71,39h12l-1.65812,4.97434A1.5,1.5,0,0,1,11.62887,45Z" fill="#e4e4e4" stroke-linecap="round" stroke-linejoin="round" stroke="#231f20"/><path d="M20.68443,39h2.34046A6.99407,6.99407,0,0,0,9.71,42a5.00589,5.00589,0,0,1-5,5,1,1,0,1,0,0,2,7.00818,7.00818,0,0,0,7-7,4.983,4.983,0,0,1,8.97442-3Z" fill="#ffd540" stroke-linecap="round" stroke-linejoin="round" stroke="#231f20"/><path d="M35.62828,41.60443a8.00614,8.00614,0,0,0-7.22693-4.83008,8.43117,8.43117,0,0,1,.29572,2.012,6.00175,6.00175,0,0,1,5.094,3.60858,1,1,0,0,0,1.83716-.79047Z" fill="#ffd540" stroke-linecap="round" stroke-linejoin="round" stroke="#231f20"/></g></g></svg>